<svg width="24" height="24" viewBox="0 0 24 24" fill="none" xmlns="http://www.w3.org/2000/svg">
<g clip-path="url(#clip0_156_49)">
<path d="M1.87352 0.748535C1.57576 0.750772 1.29089 0.87034 1.08073 1.08129C0.870578 1.29224 0.752088 1.57756 0.750977 1.87533V22.125C0.750977 22.7416 1.25697 23.249 1.87352 23.249H16.125C16.4226 23.2475 16.7076 23.1286 16.9181 22.9181C17.1286 22.7077 17.2475 22.4227 17.2489 22.125V20.2513C17.2489 19.751 16.4977 19.751 16.4977 20.2513V22.125C16.4991 22.1744 16.4904 22.2236 16.4722 22.2695C16.4539 22.3154 16.4266 22.3571 16.3917 22.3921C16.3568 22.4271 16.3152 22.4547 16.2693 22.4731C16.2235 22.4915 16.1744 22.5004 16.125 22.4992H1.87352C1.82413 22.5004 1.77501 22.4915 1.72916 22.4731C1.68331 22.4547 1.64169 22.4271 1.60682 22.3921C1.57195 22.3571 1.54456 22.3154 1.52633 22.2695C1.5081 22.2236 1.4994 22.1744 1.50076 22.125V1.87533C1.50076 1.66131 1.6595 1.49831 1.87352 1.49831H13.5015V3.37489C13.5015 3.99285 14.0089 4.50026 14.6254 4.50026H16.4992V11.998C16.4992 12.4984 17.2504 12.4984 17.2504 11.998V4.12608C17.2504 4.02678 17.2112 3.93149 17.1412 3.86104L14.1407 0.859089C14.1058 0.824009 14.0642 0.796182 14.0185 0.777209C13.9728 0.758236 13.9237 0.748492 13.8742 0.748535H1.87352ZM14.2512 2.03124L15.9677 3.74907H14.6254C14.5759 3.75043 14.5266 3.74169 14.4806 3.72337C14.4346 3.70505 14.3928 3.67754 14.3578 3.64252C14.3228 3.60749 14.2953 3.5657 14.2769 3.51968C14.2586 3.47367 14.2499 3.4244 14.2512 3.37489V2.03124ZM5.99943 3.74907C5.48918 3.73773 5.48918 4.51018 5.99943 4.50026H11.6249C12.1351 4.5116 12.1351 3.73915 11.6249 3.74907H5.99943ZM3.37308 6.7496H11.6221C12.1337 6.76094 12.1337 5.98848 11.6221 5.99982H3.3589C2.85149 6.03384 2.88692 6.76235 3.37591 6.75102L3.37308 6.7496ZM13.123 6.7496H14.624C15.1343 6.76094 15.1343 5.98848 14.624 5.99982H13.106C12.6 6.03384 12.634 6.76235 13.1245 6.75102L13.123 6.7496ZM3.37308 9.00035H14.624C15.1343 9.01169 15.1343 8.23923 14.624 8.25057H3.35607C2.84866 8.28459 2.88409 9.01169 3.37308 9.00035ZM21.5492 9.75155C21.1141 9.75155 20.6789 9.91596 20.3487 10.2476L12.8566 17.7355C12.8121 17.781 12.7799 17.8371 12.763 17.8985L12.0132 20.522C11.9956 20.586 11.9952 20.6536 12.0121 20.7178C12.0291 20.782 12.0627 20.8406 12.1097 20.8876C12.1567 20.9346 12.2152 20.9682 12.2795 20.9852C12.3437 21.0021 12.4113 21.0017 12.4753 20.9841L15.1031 20.2343C15.1634 20.217 15.2185 20.1848 15.2632 20.1407L22.7539 12.6514C22.9921 12.4138 23.1543 12.1108 23.2199 11.7808C23.2855 11.4508 23.2517 11.1088 23.1226 10.7981C22.9935 10.4874 22.7751 10.222 22.4949 10.0357C22.2148 9.84939 21.8856 9.75049 21.5492 9.75155ZM21.5492 10.4928C21.6746 10.4933 21.7986 10.5186 21.9142 10.5672C22.0297 10.6159 22.1345 10.6869 22.2224 10.7763C22.312 10.8639 22.3831 10.9686 22.4316 11.084C22.4802 11.1995 22.5052 11.3235 22.5052 11.4488C22.5052 11.5741 22.4802 11.6981 22.4316 11.8136C22.3831 11.9291 22.312 12.0337 22.2224 12.1214L21.9361 12.4077L20.5896 11.0612L20.8774 10.7749C20.965 10.6856 21.0696 10.6145 21.1849 10.5659C21.3002 10.5172 21.424 10.4933 21.5492 10.4928ZM3.3589 10.5013C2.87984 10.558 2.91244 11.2355 3.37591 11.2483H4.87547C5.38855 11.2936 5.43249 10.5112 4.89531 10.4999L3.3589 10.5013ZM6.37786 11.2483H14.6268C15.1413 11.2936 15.1839 10.5112 14.6679 10.4999H6.3566C5.8747 10.5594 5.91155 11.2383 6.37503 11.2483H6.37786ZM20.0638 11.5913L20.472 11.9995L14.0656 18.4059L13.6574 18.0005L20.0638 11.5913ZM21.0021 12.5296L21.4089 12.9378L15.0024 19.3442L14.5957 18.9374L21.0021 12.5296ZM3.37308 12.7492C2.86283 12.7379 2.86283 13.5104 3.37308 13.499H14.624C15.1343 13.5104 15.1343 12.7379 14.624 12.7478L3.37308 12.7492ZM3.37308 15C2.86283 14.9887 2.86283 15.7611 3.37308 15.7498H10.1225C10.6327 15.7611 10.6327 14.9887 10.1225 14.9986L3.37308 15ZM11.6221 15C11.1118 14.9887 11.1118 15.7611 11.6221 15.7498H13.1245C13.6347 15.7611 13.6347 14.9887 13.1245 14.9986L11.6221 15ZM3.37308 17.9991H10.8709C11.3825 18.0104 11.3825 17.2394 10.8709 17.2493H3.3589C2.85149 17.2833 2.88692 18.0119 3.37591 18.0005L3.37308 17.9991ZM13.3087 18.7163L14.2838 19.69L12.9204 20.0798L13.3087 18.7163ZM3.37308 20.2499H4.87547C5.38571 20.2612 5.38571 19.4902 4.87547 19.5001H3.35748C2.85007 19.5341 2.88551 20.2626 3.37449 20.2513L3.37308 20.2499ZM6.37361 20.2499H10.1225C10.6327 20.2612 10.6327 19.4902 10.1225 19.5001H6.3566C5.84777 19.5369 5.88604 20.2655 6.37503 20.2513L6.37361 20.2499Z" fill="black"/>
</g>
<defs>
<clipPath id="clip0_156_49">
<rect width="24" height="24" fill="white"/>
</clipPath>
</defs>
</svg>
