<svg width="69" height="14" viewBox="0 0 69 14" fill="none" xmlns="http://www.w3.org/2000/svg">
<g clip-path="url(#clip0_47_2)">
<path d="M2.98804 13.3834C2.83804 13.3834 2.68804 13.3334 2.5547 13.2334C2.28804 13.0334 2.18804 12.7168 2.28804 12.4001L3.43804 8.86677C3.48804 8.71677 3.43804 8.53343 3.3047 8.4501L0.304704 6.26677C0.0380377 6.06677 -0.0619622 5.7501 0.0380378 5.43343C0.138038 5.11677 0.421371 4.91677 0.738038 4.91677H4.4547C4.62137 4.91677 4.77137 4.81677 4.82137 4.6501L5.97137 1.11676C6.07137 0.800098 6.3547 0.600098 6.67137 0.600098C6.98804 0.600098 7.27137 0.800098 7.37137 1.11676L8.50471 4.66677C8.55471 4.81677 8.70471 4.93343 8.87137 4.93343H12.588C12.9214 4.93343 13.188 5.13343 13.288 5.4501C13.388 5.76677 13.288 6.08343 13.0214 6.28343L10.0214 8.46677C9.88804 8.56677 9.83804 8.73343 9.88804 8.88343L11.038 12.4168C11.138 12.7334 11.038 13.0501 10.7714 13.2501C10.5047 13.4501 10.1714 13.4501 9.90471 13.2501L6.90471 11.0668C6.77137 10.9668 6.58804 10.9668 6.45471 11.0668L3.4547 13.2501C3.28804 13.3334 3.13804 13.3834 2.98804 13.3834Z" fill="#F99D1D"/>
<path d="M16.8141 13.3834C16.6641 13.3834 16.5141 13.3334 16.3807 13.2334C16.1141 13.0334 16.0141 12.7168 16.1141 12.4001L17.2641 8.86677C17.3141 8.71677 17.2641 8.53343 17.1307 8.4501L14.1307 6.26677C13.8641 6.06677 13.7641 5.7501 13.8641 5.43343C13.9641 5.11677 14.2474 4.91677 14.5641 4.91677H18.2807C18.4474 4.91677 18.5974 4.81677 18.6474 4.6501L19.7974 1.11676C19.8974 0.800098 20.1807 0.600098 20.4974 0.600098C20.8141 0.600098 21.0974 0.800098 21.1974 1.11676L22.3307 4.66677C22.3807 4.81677 22.5307 4.93343 22.6974 4.93343H26.4141C26.7474 4.93343 27.0141 5.13343 27.1141 5.4501C27.2141 5.76677 27.1141 6.08343 26.8474 6.28343L23.8474 8.46677C23.7141 8.56677 23.6641 8.73343 23.7141 8.88343L24.8641 12.4168C24.9641 12.7334 24.8641 13.0501 24.5974 13.2501C24.3307 13.4501 23.9974 13.4501 23.7307 13.2501L20.7307 11.0668C20.5974 10.9668 20.4141 10.9668 20.2807 11.0668L17.2807 13.2501C17.1141 13.3334 16.9641 13.3834 16.8141 13.3834Z" fill="#F99D1D"/>
<path d="M30.6402 13.3834C30.4902 13.3834 30.3402 13.3334 30.2068 13.2334C29.9402 13.0334 29.8402 12.7168 29.9402 12.4001L31.0902 8.86677C31.1402 8.71677 31.0902 8.53343 30.9568 8.4501L27.9568 6.26677C27.6902 6.06677 27.5902 5.7501 27.6902 5.43343C27.7902 5.11677 28.0735 4.91677 28.3902 4.91677H32.1068C32.2735 4.91677 32.4235 4.81677 32.4735 4.6501L33.6235 1.11676C33.7235 0.800098 34.0068 0.600098 34.3235 0.600098C34.6402 0.600098 34.9235 0.800098 35.0235 1.11676L36.1568 4.66677C36.2068 4.81677 36.3568 4.93343 36.5235 4.93343H40.2402C40.5735 4.93343 40.8402 5.13343 40.9402 5.4501C41.0402 5.76677 40.9402 6.08343 40.6735 6.28343L37.6735 8.46677C37.5402 8.56677 37.4902 8.73343 37.5402 8.88343L38.6902 12.4168C38.7902 12.7334 38.6902 13.0501 38.4235 13.2501C38.1568 13.4501 37.8235 13.4501 37.5568 13.2501L34.5568 11.0668C34.4235 10.9668 34.2402 10.9668 34.1068 11.0668L31.1068 13.2501C30.9402 13.3334 30.7902 13.3834 30.6402 13.3834Z" fill="#F99D1D"/>
<path d="M44.4662 13.3834C44.3162 13.3834 44.1662 13.3334 44.0329 13.2334C43.7662 13.0334 43.6662 12.7168 43.7662 12.4001L44.9162 8.86677C44.9662 8.71677 44.9162 8.53343 44.7829 8.4501L41.7829 6.26677C41.5162 6.06677 41.4162 5.7501 41.5162 5.43343C41.6162 5.11677 41.8995 4.91677 42.2162 4.91677H45.933C46.0996 4.91677 46.2496 4.81677 46.2996 4.6501L47.4495 1.11676C47.5495 0.800098 47.8329 0.600098 48.1495 0.600098C48.4662 0.600098 48.7495 0.800098 48.8495 1.11676L49.9829 4.66677C50.0329 4.81677 50.1829 4.93343 50.3495 4.93343H54.0663C54.3996 4.93343 54.6662 5.13343 54.7662 5.4501C54.8662 5.76677 54.7662 6.08343 54.4995 6.28343L51.4995 8.46677C51.3662 8.56677 51.3163 8.73343 51.3663 8.88343L52.5162 12.4168C52.6162 12.7334 52.5162 13.0501 52.2495 13.2501C51.9829 13.4501 51.6496 13.4501 51.383 13.2501L48.383 11.0668C48.2496 10.9668 48.0663 10.9668 47.933 11.0668L44.9329 13.2501C44.7662 13.3334 44.6162 13.3834 44.4662 13.3834Z" fill="#F99D1D"/>
<path d="M58.2923 13.3834C58.1423 13.3834 57.9923 13.3334 57.859 13.2334C57.5923 13.0334 57.4923 12.7168 57.5923 12.4001L58.7423 8.86677C58.7923 8.71677 58.7423 8.53343 58.609 8.4501L55.609 6.26677C55.3423 6.06677 55.2423 5.7501 55.3423 5.43343C55.4423 5.11677 55.7257 4.91677 56.0423 4.91677H59.759C59.9257 4.91677 60.0757 4.81677 60.1257 4.6501L61.2757 1.11676C61.3757 0.800098 61.659 0.600098 61.9757 0.600098C62.2923 0.600098 62.5757 0.800098 62.6757 1.11676L63.809 4.66677C63.859 4.81677 64.009 4.93343 64.1757 4.93343H67.8923C68.2257 4.93343 68.4923 5.13343 68.5923 5.4501C68.6923 5.76677 68.5923 6.08343 68.3257 6.28343L65.3257 8.46677C65.1923 8.56677 65.1423 8.73343 65.1923 8.88343L66.3423 12.4168C66.4423 12.7334 66.3423 13.0501 66.0757 13.2501C65.809 13.4501 65.4757 13.4501 65.209 13.2501L62.209 11.0668C62.0757 10.9668 61.8923 10.9668 61.759 11.0668L58.759 13.2501C58.5923 13.3334 58.4423 13.3834 58.2923 13.3834Z" fill="#F99D1D"/>
</g>
<defs>
<clipPath id="clip0_47_2">
<rect width="69" height="14" fill="white"/>
</clipPath>
</defs>
</svg>
