<svg xmlns="http://www.w3.org/2000/svg" width="9" height="9" viewBox="0 0 9 9" fill="none" class="">
<path d="M0.180331 7.49906L3.1794 4.5L0.180331 1.50093C0.123468 1.44491 0.078258 1.3782 0.047308 1.30463C0.016358 1.23105 0.000280764 1.15208 3.64464e-06 1.07227C-0.000273475 0.992449 0.015255 0.913367 0.0456934 0.839582C0.0761318 0.765796 0.120878 0.698767 0.17735 0.642361C0.233823 0.585955 0.300904 0.541289 0.374725 0.510937C0.448547 0.480586 0.527647 0.46515 0.607463 0.465522C0.687279 0.465893 0.766232 0.482063 0.839768 0.5131C0.913304 0.544137 0.979967 0.589425 1.03591 0.646354L4.03397 3.64542L7.03304 0.646354C7.08899 0.589425 7.15565 0.544137 7.22919 0.5131C7.30272 0.482063 7.38167 0.465893 7.46149 0.465522C7.54131 0.46515 7.62041 0.480586 7.69423 0.510937C7.76805 0.541289 7.83513 0.585955 7.8916 0.642361C7.94808 0.698767 7.99282 0.765796 8.02326 0.839582C8.0537 0.913367 8.06923 0.992449 8.06895 1.07227C8.06867 1.15208 8.0526 1.23105 8.02165 1.30463C7.9907 1.3782 7.94549 1.44491 7.88862 1.50093L4.88855 4.5L7.88761 7.49906C7.94448 7.55508 7.98969 7.62179 8.02064 7.69537C8.05159 7.76894 8.06767 7.84791 8.06794 7.92773C8.06822 8.00754 8.05269 8.08662 8.02225 8.16041C7.99181 8.2342 7.94707 8.30122 7.8906 8.35763C7.83412 8.41404 7.76704 8.4587 7.69322 8.48905C7.6194 8.51941 7.5403 8.53484 7.46048 8.53447C7.38067 8.5341 7.30171 8.51793 7.22818 8.48689C7.15464 8.45586 7.08798 8.41057 7.03203 8.35364L4.03397 5.35457L1.0349 8.35364C0.921265 8.46558 0.767997 8.52808 0.608485 8.52752C0.448974 8.52697 0.296143 8.46341 0.183284 8.35068C0.0704249 8.23796 0.00668196 8.0852 0.00594015 7.92569C0.00519835 7.76618 0.0675177 7.61284 0.179323 7.49906H0.180331Z" fill="#9B9BB5"/>
</svg>